<svg xmlns="http://www.w3.org/2000/svg" width="28" height="21" viewBox="0 0 28 21"><defs><style>.cls-1{fill:#ddd;fill-rule:evenodd}</style></defs><path id="write42" class="cls-1" d="M490.5 6648c0 3.46.009 6.93 0 10.39a10.36 10.36 0 0 1-3.029 7.47 10.142 10.142 0 0 1-5.745 2.98c-.372.06-.747.11-1.12.16H480v-3.5a6.935 6.935 0 0 0 6.966-7H480V6648h10.5zm7 21v-3.48a6.958 6.958 0 0 0 5.461-2.64 6.8 6.8 0 0 0 1.546-4.37H497.5V6648H508v11.1c-.039.32-.066.63-.117.94a10.466 10.466 0 0 1-3.249 6.14 10.276 10.276 0 0 1-5.412 2.66c-.372.06-.747.11-1.121.16h-.6z" transform="translate(-480 -6648)"/></svg>